<svg width="243" height="132" viewBox="0 0 243 132" fill="none" xmlns="http://www.w3.org/2000/svg">
<g filter="url(#filter0_d_27528_514)">
<rect x="40" y="18.6877" width="163" height="50.4322" rx="5" fill="#FF7A50"/>
</g>
<path d="M63.202 50.543C63.0553 50.543 62.942 50.503 62.862 50.423C62.782 50.3296 62.742 50.2163 62.742 50.083V37.023C62.742 36.8763 62.782 36.763 62.862 36.683C62.942 36.5896 63.0553 36.543 63.202 36.543H71.462C71.6086 36.543 71.722 36.5896 71.802 36.683C71.882 36.763 71.922 36.8763 71.922 37.023V37.783C71.922 37.9296 71.882 38.043 71.802 38.123C71.722 38.203 71.6086 38.243 71.462 38.243H64.662V42.623H71.022C71.1686 42.623 71.282 42.6696 71.362 42.763C71.442 42.843 71.482 42.9563 71.482 43.103V43.843C71.482 43.9763 71.442 44.0896 71.362 44.183C71.282 44.263 71.1686 44.303 71.022 44.303H64.662V48.843H71.622C71.7686 48.843 71.882 48.883 71.962 48.963C72.042 49.043 72.082 49.1563 72.082 49.303V50.083C72.082 50.2163 72.042 50.3296 71.962 50.423C71.882 50.503 71.7686 50.543 71.622 50.543H63.202ZM74.1309 50.543C74.0242 50.543 73.9242 50.503 73.8309 50.423C73.7509 50.343 73.7109 50.243 73.7109 50.123C73.7109 50.083 73.7175 50.0363 73.7309 49.983C73.7575 49.9163 73.7975 49.843 73.8509 49.763L77.3309 45.223L74.0709 40.923C74.0175 40.843 73.9775 40.7763 73.9509 40.723C73.9375 40.6696 73.9309 40.6163 73.9309 40.563C73.9309 40.443 73.9709 40.343 74.0509 40.263C74.1309 40.183 74.2309 40.143 74.3509 40.143H75.3709C75.5175 40.143 75.6242 40.183 75.6909 40.263C75.7709 40.3296 75.8375 40.3963 75.8909 40.463L78.5509 43.923L81.2109 40.483C81.2642 40.4163 81.3242 40.343 81.3909 40.263C81.4709 40.183 81.5842 40.143 81.7309 40.143H82.7109C82.8309 40.143 82.9309 40.183 83.0109 40.263C83.0909 40.343 83.1309 40.443 83.1309 40.563C83.1309 40.6163 83.1175 40.6696 83.0909 40.723C83.0775 40.7763 83.0442 40.843 82.9909 40.923L79.6909 45.263L83.1709 49.763C83.2242 49.843 83.2575 49.9096 83.2709 49.963C83.2975 50.0163 83.3109 50.0696 83.3109 50.123C83.3109 50.243 83.2709 50.343 83.1909 50.423C83.1109 50.503 83.0109 50.543 82.8909 50.543H81.8309C81.6975 50.543 81.5909 50.5096 81.5109 50.443C81.4309 50.3763 81.3642 50.3096 81.3109 50.243L78.4909 46.583L75.6709 50.243C75.6175 50.2963 75.5509 50.363 75.4709 50.443C75.4042 50.5096 75.2975 50.543 75.1509 50.543H74.1309ZM85.8721 54.343C85.7388 54.343 85.6254 54.2963 85.5321 54.203C85.4521 54.123 85.4121 54.0163 85.4121 53.883V40.603C85.4121 40.4696 85.4521 40.363 85.5321 40.283C85.6254 40.1896 85.7388 40.143 85.8721 40.143H86.7921C86.9254 40.143 87.0321 40.1896 87.1121 40.283C87.2054 40.363 87.2521 40.4696 87.2521 40.603V41.483C87.5721 41.043 87.9988 40.6763 88.5321 40.383C89.0654 40.0896 89.7321 39.943 90.5321 39.943C91.2788 39.943 91.9121 40.0696 92.4321 40.323C92.9654 40.5763 93.3988 40.923 93.7321 41.363C94.0788 41.803 94.3388 42.303 94.5121 42.863C94.6854 43.423 94.7788 44.023 94.7921 44.663C94.8054 44.8763 94.8121 45.103 94.8121 45.343C94.8121 45.583 94.8054 45.8096 94.7921 46.023C94.7788 46.6496 94.6854 47.2496 94.5121 47.823C94.3388 48.383 94.0788 48.883 93.7321 49.323C93.3988 49.7496 92.9654 50.0963 92.4321 50.363C91.9121 50.6163 91.2788 50.743 90.5321 50.743C89.7588 50.743 89.1054 50.603 88.5721 50.323C88.0521 50.0296 87.6254 49.6696 87.2921 49.243V53.883C87.2921 54.0163 87.2521 54.123 87.1721 54.203C87.0921 54.2963 86.9788 54.343 86.8321 54.343H85.8721ZM90.1121 49.123C90.8054 49.123 91.3454 48.9763 91.7321 48.683C92.1321 48.3763 92.4188 47.983 92.5921 47.503C92.7654 47.0096 92.8654 46.483 92.8921 45.923C92.9054 45.5363 92.9054 45.1496 92.8921 44.763C92.8654 44.203 92.7654 43.683 92.5921 43.203C92.4188 42.7096 92.1321 42.3163 91.7321 42.023C91.3454 41.7163 90.8054 41.563 90.1121 41.563C89.4588 41.563 88.9254 41.7163 88.5121 42.023C88.1121 42.3296 87.8121 42.723 87.6121 43.203C87.4254 43.6696 87.3188 44.1496 87.2921 44.643C87.2788 44.8563 87.2721 45.1096 87.2721 45.403C87.2721 45.6963 87.2788 45.9563 87.2921 46.183C87.3054 46.6496 87.4121 47.1096 87.6121 47.563C87.8254 48.0163 88.1388 48.3896 88.5521 48.683C88.9654 48.9763 89.4854 49.123 90.1121 49.123ZM97.7862 50.543C97.6528 50.543 97.5395 50.503 97.4462 50.423C97.3662 50.3296 97.3262 50.2163 97.3262 50.083V36.803C97.3262 36.6696 97.3662 36.563 97.4462 36.483C97.5395 36.3896 97.6528 36.343 97.7862 36.343H98.7262C98.8728 36.343 98.9862 36.3896 99.0662 36.483C99.1462 36.563 99.1862 36.6696 99.1862 36.803V50.083C99.1862 50.2163 99.1462 50.3296 99.0662 50.423C98.9862 50.503 98.8728 50.543 98.7262 50.543H97.7862ZM106.429 50.743C105.416 50.743 104.569 50.5496 103.889 50.163C103.209 49.7763 102.689 49.243 102.329 48.563C101.969 47.8696 101.769 47.083 101.729 46.203C101.716 45.9763 101.709 45.6896 101.709 45.343C101.709 44.983 101.716 44.6963 101.729 44.483C101.769 43.5896 101.969 42.803 102.329 42.123C102.703 41.443 103.229 40.9096 103.909 40.523C104.589 40.1363 105.429 39.943 106.429 39.943C107.429 39.943 108.269 40.1363 108.949 40.523C109.629 40.9096 110.149 41.443 110.509 42.123C110.883 42.803 111.089 43.5896 111.129 44.483C111.143 44.6963 111.149 44.983 111.149 45.343C111.149 45.6896 111.143 45.9763 111.129 46.203C111.089 47.083 110.889 47.8696 110.529 48.563C110.169 49.243 109.649 49.7763 108.969 50.163C108.289 50.5496 107.443 50.743 106.429 50.743ZM106.429 49.203C107.256 49.203 107.916 48.943 108.409 48.423C108.903 47.8896 109.169 47.1163 109.209 46.103C109.223 45.903 109.229 45.6496 109.229 45.343C109.229 45.0363 109.223 44.783 109.209 44.583C109.169 43.5696 108.903 42.803 108.409 42.283C107.916 41.7496 107.256 41.483 106.429 41.483C105.603 41.483 104.936 41.7496 104.429 42.283C103.936 42.803 103.676 43.5696 103.649 44.583C103.636 44.783 103.629 45.0363 103.629 45.343C103.629 45.6496 103.636 45.903 103.649 46.103C103.676 47.1163 103.936 47.8896 104.429 48.423C104.936 48.943 105.603 49.203 106.429 49.203ZM114.114 50.543C113.98 50.543 113.867 50.503 113.774 50.423C113.694 50.3296 113.654 50.2163 113.654 50.083V40.623C113.654 40.4896 113.694 40.3763 113.774 40.283C113.867 40.1896 113.98 40.143 114.114 40.143H115.034C115.167 40.143 115.28 40.1896 115.374 40.283C115.467 40.3763 115.514 40.4896 115.514 40.623V41.503C115.78 41.0496 116.147 40.7096 116.614 40.483C117.08 40.2563 117.64 40.143 118.294 40.143H119.094C119.227 40.143 119.334 40.1896 119.414 40.283C119.494 40.363 119.534 40.4696 119.534 40.603V41.423C119.534 41.5563 119.494 41.663 119.414 41.743C119.334 41.823 119.227 41.863 119.094 41.863H117.894C117.174 41.863 116.607 42.0763 116.194 42.503C115.78 42.9163 115.574 43.483 115.574 44.203V50.083C115.574 50.2163 115.527 50.3296 115.434 50.423C115.34 50.503 115.227 50.543 115.094 50.543H114.114ZM125.196 50.743C123.823 50.743 122.73 50.323 121.916 49.483C121.103 48.6296 120.656 47.4696 120.576 46.003C120.563 45.8296 120.556 45.6096 120.556 45.343C120.556 45.063 120.563 44.8363 120.576 44.663C120.63 43.7163 120.85 42.8896 121.236 42.183C121.623 41.463 122.15 40.9096 122.816 40.523C123.496 40.1363 124.29 39.943 125.196 39.943C126.21 39.943 127.056 40.1563 127.736 40.583C128.43 41.0096 128.956 41.6163 129.316 42.403C129.676 43.1896 129.856 44.1096 129.856 45.163V45.503C129.856 45.6496 129.81 45.763 129.716 45.843C129.636 45.923 129.53 45.963 129.396 45.963H122.476C122.476 45.9763 122.476 46.003 122.476 46.043C122.476 46.083 122.476 46.1163 122.476 46.143C122.503 46.6896 122.623 47.203 122.836 47.683C123.05 48.1496 123.356 48.5296 123.756 48.823C124.156 49.1163 124.636 49.263 125.196 49.263C125.676 49.263 126.076 49.1896 126.396 49.043C126.716 48.8963 126.976 48.7363 127.176 48.563C127.376 48.3763 127.51 48.2363 127.576 48.143C127.696 47.9696 127.79 47.8696 127.856 47.843C127.923 47.803 128.03 47.783 128.176 47.783H129.136C129.27 47.783 129.376 47.823 129.456 47.903C129.55 47.9696 129.59 48.0696 129.576 48.203C129.563 48.403 129.456 48.6496 129.256 48.943C129.056 49.223 128.77 49.503 128.396 49.783C128.023 50.063 127.57 50.2963 127.036 50.483C126.503 50.6563 125.89 50.743 125.196 50.743ZM122.476 44.583H127.956V44.523C127.956 43.923 127.843 43.3896 127.616 42.923C127.403 42.4563 127.09 42.0896 126.676 41.823C126.263 41.543 125.77 41.403 125.196 41.403C124.623 41.403 124.13 41.543 123.716 41.823C123.316 42.0896 123.01 42.4563 122.796 42.923C122.583 43.3896 122.476 43.923 122.476 44.523V44.583ZM137.87 50.543C137.723 50.543 137.61 50.503 137.53 50.423C137.45 50.3296 137.41 50.2163 137.41 50.083V37.023C137.41 36.8763 137.45 36.763 137.53 36.683C137.61 36.5896 137.723 36.543 137.87 36.543H146.03C146.177 36.543 146.29 36.5896 146.37 36.683C146.45 36.763 146.49 36.8763 146.49 37.023V37.823C146.49 37.9696 146.45 38.083 146.37 38.163C146.29 38.243 146.177 38.283 146.03 38.283H139.35V42.943H145.63C145.777 42.943 145.89 42.9896 145.97 43.083C146.05 43.163 146.09 43.2763 146.09 43.423V44.223C146.09 44.3563 146.05 44.4696 145.97 44.563C145.89 44.643 145.777 44.683 145.63 44.683H139.35V50.083C139.35 50.2163 139.303 50.3296 139.21 50.423C139.13 50.503 139.017 50.543 138.87 50.543H137.87ZM152.875 50.743C151.861 50.743 151.015 50.5496 150.335 50.163C149.655 49.7763 149.135 49.243 148.775 48.563C148.415 47.8696 148.215 47.083 148.175 46.203C148.161 45.9763 148.155 45.6896 148.155 45.343C148.155 44.983 148.161 44.6963 148.175 44.483C148.215 43.5896 148.415 42.803 148.775 42.123C149.148 41.443 149.675 40.9096 150.355 40.523C151.035 40.1363 151.875 39.943 152.875 39.943C153.875 39.943 154.715 40.1363 155.395 40.523C156.075 40.9096 156.595 41.443 156.955 42.123C157.328 42.803 157.535 43.5896 157.575 44.483C157.588 44.6963 157.595 44.983 157.595 45.343C157.595 45.6896 157.588 45.9763 157.575 46.203C157.535 47.083 157.335 47.8696 156.975 48.563C156.615 49.243 156.095 49.7763 155.415 50.163C154.735 50.5496 153.888 50.743 152.875 50.743ZM152.875 49.203C153.701 49.203 154.361 48.943 154.855 48.423C155.348 47.8896 155.615 47.1163 155.655 46.103C155.668 45.903 155.675 45.6496 155.675 45.343C155.675 45.0363 155.668 44.783 155.655 44.583C155.615 43.5696 155.348 42.803 154.855 42.283C154.361 41.7496 153.701 41.483 152.875 41.483C152.048 41.483 151.381 41.7496 150.875 42.283C150.381 42.803 150.121 43.5696 150.095 44.583C150.081 44.783 150.075 45.0363 150.075 45.343C150.075 45.6496 150.081 45.903 150.095 46.103C150.121 47.1163 150.381 47.8896 150.875 48.423C151.381 48.943 152.048 49.203 152.875 49.203ZM164.359 50.743C163.346 50.743 162.499 50.5496 161.819 50.163C161.139 49.7763 160.619 49.243 160.259 48.563C159.899 47.8696 159.699 47.083 159.659 46.203C159.646 45.9763 159.639 45.6896 159.639 45.343C159.639 44.983 159.646 44.6963 159.659 44.483C159.699 43.5896 159.899 42.803 160.259 42.123C160.632 41.443 161.159 40.9096 161.839 40.523C162.519 40.1363 163.359 39.943 164.359 39.943C165.359 39.943 166.199 40.1363 166.879 40.523C167.559 40.9096 168.079 41.443 168.439 42.123C168.812 42.803 169.019 43.5896 169.059 44.483C169.072 44.6963 169.079 44.983 169.079 45.343C169.079 45.6896 169.072 45.9763 169.059 46.203C169.019 47.083 168.819 47.8696 168.459 48.563C168.099 49.243 167.579 49.7763 166.899 50.163C166.219 50.5496 165.372 50.743 164.359 50.743ZM164.359 49.203C165.186 49.203 165.846 48.943 166.339 48.423C166.832 47.8896 167.099 47.1163 167.139 46.103C167.152 45.903 167.159 45.6496 167.159 45.343C167.159 45.0363 167.152 44.783 167.139 44.583C167.099 43.5696 166.832 42.803 166.339 42.283C165.846 41.7496 165.186 41.483 164.359 41.483C163.532 41.483 162.866 41.7496 162.359 42.283C161.866 42.803 161.606 43.5696 161.579 44.583C161.566 44.783 161.559 45.0363 161.559 45.343C161.559 45.6496 161.566 45.903 161.579 46.103C161.606 47.1163 161.866 47.8896 162.359 48.423C162.866 48.943 163.532 49.203 164.359 49.203ZM175.384 50.743C174.65 50.743 174.017 50.6163 173.484 50.363C172.95 50.0963 172.51 49.743 172.164 49.303C171.83 48.8496 171.577 48.3363 171.404 47.763C171.244 47.1896 171.15 46.583 171.124 45.943C171.11 45.7296 171.104 45.5296 171.104 45.343C171.104 45.1563 171.11 44.9563 171.124 44.743C171.15 44.1163 171.244 43.5163 171.404 42.943C171.577 42.3696 171.83 41.8563 172.164 41.403C172.51 40.9496 172.95 40.5963 173.484 40.343C174.017 40.0763 174.65 39.943 175.384 39.943C176.17 39.943 176.824 40.083 177.344 40.363C177.864 40.643 178.29 40.9896 178.624 41.403V36.803C178.624 36.6696 178.664 36.563 178.744 36.483C178.837 36.3896 178.95 36.343 179.084 36.343H180.044C180.177 36.343 180.284 36.3896 180.364 36.483C180.457 36.563 180.504 36.6696 180.504 36.803V50.083C180.504 50.2163 180.457 50.3296 180.364 50.423C180.284 50.503 180.177 50.543 180.044 50.543H179.144C178.997 50.543 178.884 50.503 178.804 50.423C178.724 50.3296 178.684 50.2163 178.684 50.083V49.243C178.35 49.6696 177.917 50.0296 177.384 50.323C176.85 50.603 176.184 50.743 175.384 50.743ZM175.804 49.123C176.47 49.123 177.004 48.9696 177.404 48.663C177.804 48.3563 178.104 47.9696 178.304 47.503C178.504 47.023 178.61 46.5363 178.624 46.043C178.637 45.8296 178.644 45.5763 178.644 45.283C178.644 44.9763 178.637 44.7163 178.624 44.503C178.61 44.0363 178.497 43.5763 178.284 43.123C178.084 42.6696 177.777 42.2963 177.364 42.003C176.964 41.7096 176.444 41.563 175.804 41.563C175.124 41.563 174.584 41.7163 174.184 42.023C173.784 42.3163 173.497 42.7096 173.324 43.203C173.15 43.683 173.05 44.203 173.024 44.763C173.01 45.1496 173.01 45.5363 173.024 45.923C173.05 46.483 173.15 47.0096 173.324 47.503C173.497 47.983 173.784 48.3763 174.184 48.683C174.584 48.9763 175.124 49.123 175.804 49.123Z" fill="white"/>
<defs>
<filter id="filter0_d_27528_514" x="0" y="0.687744" width="243" height="130.432" filterUnits="userSpaceOnUse" color-interpolation-filters="sRGB">
<feFlood flood-opacity="0" result="BackgroundImageFix"/>
<feColorMatrix in="SourceAlpha" type="matrix" values="0 0 0 0 0 0 0 0 0 0 0 0 0 0 0 0 0 0 127 0" result="hardAlpha"/>
<feOffset dy="22"/>
<feGaussianBlur stdDeviation="20"/>
<feColorMatrix type="matrix" values="0 0 0 0 1 0 0 0 0 0.407843 0 0 0 0 0.219608 0 0 0 0.19 0"/>
<feBlend mode="normal" in2="BackgroundImageFix" result="effect1_dropShadow_27528_514"/>
<feBlend mode="normal" in="SourceGraphic" in2="effect1_dropShadow_27528_514" result="shape"/>
</filter>
</defs>
</svg>
