<svg width="30" height="31" viewBox="0 0 30 31" fill="none" xmlns="http://www.w3.org/2000/svg">
<path d="M5.75085 22.2463L6.1105 23.1025C6.36418 22.9985 6.62837 22.9215 6.89859 22.873L6.73095 21.9608C6.39491 22.0212 6.06635 22.1169 5.75085 22.2463Z" fill="url(#paint0_linear_27528_614)"/>
<path d="M3.28833 24.5473L4.13208 24.9514C4.42409 24.3558 4.86828 23.8458 5.42073 23.472L4.89163 22.7067C4.20428 23.1718 3.65162 23.8062 3.28833 24.5473Z" fill="url(#paint1_linear_27528_614)"/>
<path d="M29.0625 24.2863C29.063 23.4881 28.7655 22.7177 28.2268 22.1231L27.5283 22.7413C27.8054 23.0471 27.9952 23.4204 28.0781 23.8228H24.8437C24.7666 23.8228 24.6906 23.8417 24.6226 23.8777C24.5545 23.9137 24.4966 23.9657 24.4537 24.0292L22.7179 26.604H21.5625V25.2134C21.5635 24.3532 21.9095 23.5284 22.5247 22.9201C23.1398 22.3118 23.9738 21.9697 24.8437 21.9687H25.7812C26.2422 21.9679 26.6931 22.1022 27.0769 22.3547L27.596 21.5827C27.1912 21.3163 26.7313 21.1427 26.25 21.0748V19.651C26.25 19.5281 26.2006 19.4102 26.1127 19.3233C26.0248 19.2363 25.9056 19.1875 25.7812 19.1875C25.2841 19.187 24.8076 18.9914 24.456 18.6438C24.1045 18.2962 23.9068 17.825 23.9062 17.3334V15.4793H25.3125C25.4368 15.4793 25.556 15.4304 25.644 15.3435C25.7319 15.2566 25.7812 15.1387 25.7812 15.0157V11.771C25.7812 11.6481 25.7319 11.5302 25.644 11.4433C25.556 11.3563 25.4368 11.3075 25.3125 11.3075H24.4857C24.2899 11.3078 24.0949 11.3344 23.9062 11.3865V10.844C23.9063 10.7387 23.8701 10.6365 23.8035 10.5543L22.2698 8.65842C22.4708 8.3233 22.543 7.92788 22.4734 7.54441C22.4038 7.16095 22.197 6.81506 21.8907 6.56997C21.5845 6.32487 21.1993 6.19693 20.8055 6.20954C20.4118 6.22214 20.0357 6.37445 19.7461 6.63862C19.4566 6.90279 19.2728 7.26118 19.2284 7.64829C19.184 8.03541 19.282 8.42538 19.5044 8.74695C19.7269 9.06852 20.0589 9.3002 20.4398 9.39965C20.8207 9.4991 21.2251 9.45968 21.5791 9.28859L22.9687 11.0066V11.5914L20.908 10.9122C20.773 10.8661 20.6311 10.8431 20.4883 10.844H16.6219L14.3965 8.27653C14.5827 8.14862 14.7348 7.97806 14.8399 7.77941C14.945 7.58076 14.9999 7.35992 15 7.13573V6.95866L15.6784 6.62324C15.7378 6.59384 15.7903 6.55228 15.8322 6.50131C15.8742 6.45034 15.9047 6.39113 15.9218 6.32761C15.9388 6.26408 15.942 6.1977 15.9312 6.13286C15.9203 6.06802 15.8956 6.00621 15.8587 5.95152L15.0888 4.8095C15.1957 4.7891 15.2921 4.73253 15.3614 4.64952C15.4308 4.5665 15.4687 4.46221 15.4687 4.35455C15.4679 3.61719 15.1713 2.91027 14.644 2.38888C14.1168 1.8675 13.4019 1.57421 12.6562 1.57336C11.7735 1.57336 10.9562 1.82408 10.3482 2.48837C10.0848 2.77665 9.88532 3.11621 9.76248 3.48525C9.63965 3.85429 9.59622 4.24465 9.63498 4.63127L9.73529 5.62276C9.77749 6.05026 9.98412 6.44539 10.3125 6.72654V15.4793C10.3122 15.8049 10.3993 16.1248 10.5647 16.4063H9.84375C9.68404 16.4063 9.52551 16.4332 9.375 16.4861V10.3804C9.37458 10.0118 9.22629 9.65829 8.96266 9.3976C8.69902 9.1369 8.34158 8.99026 7.96875 8.98985H2.34375C1.97092 8.99026 1.61348 9.1369 1.34984 9.3976C1.08621 9.65829 0.937919 10.0118 0.9375 10.3804V12.6981H1.875V11.771H8.4375V16.4063H1.875V13.6251H0.9375V17.41C0.937396 17.6272 1.01442 17.8375 1.15511 18.0042C1.29581 18.1709 1.49125 18.2834 1.7073 18.3222L6.09375 19.1109V20.1986C5.69633 20.2896 5.30824 20.4166 4.93441 20.5781H2.34375C2.21943 20.5781 2.1002 20.6269 2.01229 20.7139C1.92439 20.8008 1.875 20.9187 1.875 21.0416V23.2418C1.26253 24.2588 0.938666 25.4203 0.9375 26.604C0.9375 26.7269 0.986886 26.8448 1.07479 26.9318C1.1627 27.0187 1.28193 27.0675 1.40625 27.0675H3.55494C3.83507 27.7523 4.31562 28.3387 4.93497 28.7516C5.55433 29.1645 6.28428 29.3851 7.03125 29.3851C7.77822 29.3851 8.50817 29.1645 9.12753 28.7516C9.74688 28.3387 10.2274 27.7523 10.5076 27.0675H18.3891C18.7156 27.0673 19.0385 26.9998 19.3371 26.8692C19.6358 26.7386 19.9036 26.5478 20.1234 26.3091L20.625 25.7633V27.0675C20.625 27.1905 20.6744 27.3084 20.7623 27.3953C20.8502 27.4822 20.9694 27.5311 21.0937 27.5311H22.065C22.4778 28.238 23.1149 28.7904 23.8775 29.1028C24.6402 29.4151 25.4857 29.4699 26.2831 29.2587C27.0804 29.0474 27.785 28.5819 28.2875 27.9343C28.7901 27.2867 29.0625 26.4932 29.0625 25.6769C29.0629 25.3219 29.0114 24.9687 28.9098 24.6282C28.9579 24.5849 28.9964 24.5321 29.0227 24.4732C29.049 24.4144 29.0625 24.3507 29.0625 24.2863ZM20.1562 7.83102C20.1562 7.6935 20.1975 7.55908 20.2747 7.44474C20.352 7.3304 20.4618 7.24128 20.5903 7.18865C20.7188 7.13603 20.8602 7.12226 20.9965 7.14909C21.1329 7.17591 21.2582 7.24213 21.3566 7.33937C21.4549 7.43661 21.5219 7.5605 21.549 7.69538C21.5761 7.83025 21.5622 7.97005 21.509 8.0971C21.4558 8.22415 21.3656 8.33274 21.25 8.40914C21.1344 8.48554 20.9984 8.52632 20.8594 8.52632C20.673 8.52612 20.4942 8.4528 20.3624 8.32245C20.2306 8.1921 20.1565 8.01536 20.1562 7.83102ZM13.4502 24.2863C12.9911 24.2858 12.551 24.1053 12.2264 23.7843C11.9018 23.4633 11.7193 23.0281 11.7187 22.5741C11.7187 22.119 11.8351 21.6934 12.1418 21.3433C12.4151 21.0321 12.7925 20.8285 13.2051 20.7697C13.7031 20.6994 14.1589 20.4538 14.4886 20.078C14.8183 19.7022 14.9999 19.2215 15 18.724C15.0001 18.6631 14.988 18.6027 14.9644 18.5465C14.9408 18.4902 14.9062 18.4391 14.8626 18.3961C14.9423 18.2314 14.9883 18.0527 14.998 17.8703C15.0078 17.688 14.9811 17.5055 14.9194 17.3334H16.1925L14.1355 22.6219C14.0858 22.7493 14.061 22.8848 14.0625 23.0213V24.2863H13.4502ZM15 23.3593H17.3437C17.4443 23.3594 17.5421 23.3914 17.6228 23.4507C17.7035 23.51 17.7628 23.5933 17.792 23.6885C17.8211 23.7836 17.8185 23.8855 17.7846 23.9791C17.7507 24.0727 17.6873 24.153 17.6037 24.2082C17.4859 24.2593 17.3587 24.2859 17.2301 24.2863H15V23.3593ZM18.6376 23.2782C18.5444 23.0625 18.3976 22.8735 18.211 22.7288C18.0243 22.5841 17.8037 22.4883 17.5697 22.4502L19.511 17.8286C19.6835 17.4179 19.7508 16.9714 19.707 16.5287C19.6633 16.0861 19.5097 15.661 19.26 15.291C19.0103 14.9211 18.6722 14.6179 18.2755 14.4081C17.8789 14.1984 17.4361 14.0887 16.9863 14.0887H15V13.3536L15.1373 13.4894C15.1808 13.5324 15.2325 13.5666 15.2894 13.5899C15.3462 13.6132 15.4072 13.6252 15.4687 13.6251H20.2369C20.1618 13.8349 20.1387 14.0594 20.1695 14.2798C20.2004 14.5001 20.2843 14.71 20.4142 14.8917C20.5441 15.0733 20.7161 15.2215 20.916 15.3238C21.1158 15.426 21.3375 15.4793 21.5625 15.4793H21.5638C21.2582 15.8799 21.0932 16.3681 21.0937 16.8699V20.4657C21.093 20.7114 20.9944 20.947 20.8191 21.1212L18.6376 23.2782ZM21.5625 14.5522C21.4698 14.5522 21.3792 14.525 21.3021 14.4741C21.225 14.4232 21.1649 14.3508 21.1294 14.2661C21.094 14.1814 21.0847 14.0882 21.1028 13.9982C21.1208 13.9083 21.1655 13.8257 21.231 13.7609C21.2966 13.6961 21.3801 13.6519 21.4711 13.6341C21.562 13.6162 21.6562 13.6253 21.7419 13.6604C21.8275 13.6955 21.9007 13.7549 21.9522 13.8312C22.0038 13.9074 22.0312 13.997 22.0312 14.0887C22.0311 14.2116 21.9817 14.3294 21.8938 14.4163C21.8059 14.5032 21.6868 14.5521 21.5625 14.5522ZM24.8437 12.2346V14.5522H23.9062V12.3789C24.0845 12.2845 24.2835 12.2349 24.4857 12.2346H24.8437ZM22.9687 14.0887C22.9688 13.8662 22.9149 13.6469 22.8115 13.4493C22.7081 13.2517 22.5582 13.0816 22.3745 12.9531C22.1908 12.8247 21.9786 12.7417 21.7557 12.7112C21.5329 12.6807 21.3058 12.7036 21.0937 12.7778V11.9506L22.9687 12.5686V14.0887ZM16.4062 11.771H20.1562V12.6981H15.6629L12.9877 10.0527L12.3248 10.7082L14.0625 12.4265V14.0887H11.25V8.52632H13.3781L16.0504 11.6092C16.0944 11.66 16.149 11.7007 16.2104 11.7286C16.2718 11.7566 16.3386 11.771 16.4062 11.771ZM11.0433 3.11043C11.4718 2.64221 12.0405 2.50042 12.6562 2.50042C13.0718 2.50095 13.4755 2.63773 13.804 2.88936C14.1326 3.14099 14.3675 3.49326 14.472 3.89102H12.6562C12.5319 3.89102 12.4127 3.93985 12.3248 4.02678C12.2369 4.11371 12.1875 4.23161 12.1875 4.35455V5.45543C12.1868 5.6482 12.1114 5.83338 11.9768 5.97282C11.8422 6.11227 11.6586 6.19538 11.4639 6.20503C11.2692 6.21468 11.0782 6.15015 10.9302 6.02471C10.7821 5.89928 10.6884 5.72249 10.6682 5.53075L10.5679 4.53926C10.5404 4.28139 10.5686 4.02069 10.6505 3.77439C10.7325 3.52808 10.8664 3.30178 11.0433 3.11043ZM11.4258 7.13573C11.8763 7.13527 12.3082 6.95809 12.6268 6.64307C12.9454 6.32805 13.1245 5.90093 13.125 5.45543V4.81808H14.0625C14.0625 4.9096 14.0899 4.99908 14.1412 5.07522L14.7842 6.02905L14.3213 6.2578C14.2435 6.29632 14.1781 6.35549 14.1324 6.42868C14.0867 6.50186 14.0625 6.58618 14.0625 6.6722V7.13573C14.0624 7.25862 14.0129 7.37644 13.9251 7.46334C13.8372 7.55024 13.718 7.59912 13.5937 7.59926H11.25V7.12663C11.3084 7.13261 11.3671 7.13565 11.4258 7.13573ZM11.25 15.4793V15.0157H16.9863C17.2819 15.0157 17.5728 15.0879 17.8334 15.2257C18.094 15.3635 18.3162 15.5628 18.4803 15.8059C18.6443 16.049 18.7452 16.3283 18.7739 16.6191C18.8027 16.91 18.7584 17.2034 18.6451 17.4733L16.5621 22.4322H15.2137L17.3125 17.0363C17.3398 16.9661 17.3494 16.8903 17.3405 16.8156C17.3316 16.7409 17.3045 16.6694 17.2614 16.6074C17.2183 16.5454 17.1607 16.4947 17.0933 16.4597C17.026 16.4246 16.9511 16.4063 16.875 16.4063H12.1875C11.9389 16.406 11.7007 16.3083 11.5249 16.1345C11.3492 15.9607 11.2503 15.7251 11.25 15.4793ZM9.84375 17.3334H13.5937C13.7181 17.3334 13.8373 17.3822 13.9252 17.4692C14.0131 17.5561 14.0625 17.674 14.0625 17.7969C14.0625 17.9199 14.0131 18.0378 13.9252 18.1247C13.8373 18.2116 13.7181 18.2605 13.5937 18.2605H9.84375C9.71943 18.2605 9.6002 18.2116 9.51229 18.1247C9.42439 18.0378 9.375 17.9199 9.375 17.7969C9.375 17.674 9.42439 17.5561 9.51229 17.4692C9.6002 17.3822 9.71943 17.3334 9.84375 17.3334ZM1.875 10.844V10.3804C1.87514 10.2575 1.92457 10.1397 2.01245 10.0528C2.10033 9.96593 2.21947 9.91704 2.34375 9.91691H7.96875C8.09303 9.91704 8.21217 9.96593 8.30005 10.0528C8.38793 10.1397 8.43736 10.2575 8.4375 10.3804V10.844H1.875ZM1.875 17.3334H8.4375V18.2605H6.60475L1.875 17.41V17.3334ZM3.39199 21.5052C3.18852 21.6685 2.99502 21.8437 2.8125 22.0296V21.5052H3.39199ZM7.03125 28.4581C6.53808 28.4559 6.05404 28.3265 5.62697 28.0826C5.1999 27.8387 4.8446 27.4888 4.59621 27.0675H5.79223C6.13429 27.3662 6.57491 27.5311 7.03125 27.5311C7.48759 27.5311 7.92821 27.3662 8.27027 27.0675H9.46629C9.2179 27.4888 8.8626 27.8387 8.43553 28.0826C8.00846 28.3265 7.52441 28.4559 7.03125 28.4581ZM19.4297 25.6856C19.2978 25.8288 19.1371 25.9433 18.9579 26.0216C18.7787 26.0999 18.585 26.1404 18.3891 26.1405H1.89439C1.9952 24.9303 2.48787 23.7845 3.29929 22.8732C4.11071 21.9618 5.19764 21.3334 6.39879 21.0813C6.51996 21.0552 6.64358 21.0419 6.76758 21.0416H9.84375V20.1146H7.03125V19.1875H13.9629C13.8835 19.3638 13.7601 19.5172 13.6043 19.6335C13.4485 19.7497 13.2655 19.825 13.0723 19.8522C12.4364 19.9426 11.8547 20.2563 11.4334 20.7359C10.9798 21.2524 10.7812 21.8986 10.7812 22.5742C10.7808 23.2022 11.008 23.8097 11.4216 24.2863H7.5V25.2134H17.2301C17.7266 25.2098 18.2022 25.015 18.5559 24.6703L21.482 21.7767C21.8325 21.4282 22.0298 20.9571 22.0312 20.4657V16.8699C22.0316 16.5824 22.1219 16.302 22.2897 16.0673C22.4576 15.8325 22.6948 15.6549 22.9687 15.5587V17.3334C22.9696 17.9904 23.2053 18.626 23.6342 19.1279C24.063 19.6297 24.6575 19.9655 25.3125 20.0759V21.0416C25.0215 21.0416 24.7237 21.0242 24.4344 21.0616C23.5575 21.1476 22.7297 21.5024 22.0667 22.0765C21.4037 22.6505 20.9387 23.415 20.7367 24.2632L19.4297 25.6856ZM25.0946 24.7499H25.1184L25.6842 25.3094C25.7825 25.407 25.8378 25.5391 25.8381 25.6769C25.8381 25.7797 25.8073 25.8802 25.7495 25.9657C25.6918 26.0512 25.6097 26.1178 25.5136 26.1571C25.4176 26.1965 25.3119 26.2068 25.21 26.1867C25.108 26.1667 25.0143 26.1171 24.9408 26.0445L24.5094 25.6179L25.0946 24.7499ZM25.3125 28.4581C24.9063 28.4568 24.5052 28.3691 24.1364 28.2008C23.7676 28.0325 23.4398 27.7876 23.1753 27.4828C23.2495 27.4471 23.3128 27.3925 23.3587 27.3247L23.7652 26.7221C23.9909 27.0494 24.3167 27.2966 24.6949 27.4274C25.0731 27.5582 25.4837 27.5656 25.8665 27.4487C26.2493 27.3318 26.5841 27.0967 26.8219 26.7778C27.0596 26.4589 27.1878 26.0731 27.1875 25.6769C27.1882 25.4023 27.1263 25.131 27.0065 24.8831C26.9846 24.8375 26.9606 24.7934 26.9352 24.7499H27.9647C28.1144 25.1694 28.1601 25.6183 28.0981 26.0589C28.0361 26.4996 27.8682 26.9191 27.6084 27.2823C27.3487 27.6455 27.0046 27.9418 26.6051 28.1464C26.2056 28.351 25.7624 28.4579 25.3125 28.4581Z" fill="url(#paint2_linear_27528_614)"/>
<path d="M3.75 12.6976H2.8125V15.4788H3.75V12.6976Z" fill="url(#paint3_linear_27528_614)"/>
<defs>
<linearGradient id="paint0_linear_27528_614" x1="5.75085" y1="22.4936" x2="6.87108" y2="22.4986" gradientUnits="userSpaceOnUse">
<stop stop-color="#47C2FF"/>
<stop offset="1" stop-color="#1CB4FF" stop-opacity="0.71"/>
</linearGradient>
<linearGradient id="paint1_linear_27528_614" x1="3.28833" y1="23.7542" x2="5.36963" y2="23.763" gradientUnits="userSpaceOnUse">
<stop stop-color="#47C2FF"/>
<stop offset="1" stop-color="#1CB4FF" stop-opacity="0.71"/>
</linearGradient>
<linearGradient id="paint2_linear_27528_614" x1="0.9375" y1="14.5522" x2="28.3884" y2="14.676" gradientUnits="userSpaceOnUse">
<stop stop-color="#47C2FF"/>
<stop offset="1" stop-color="#1CB4FF" stop-opacity="0.71"/>
</linearGradient>
<linearGradient id="paint3_linear_27528_614" x1="2.8125" y1="13.9955" x2="3.72755" y2="13.9969" gradientUnits="userSpaceOnUse">
<stop stop-color="#47C2FF"/>
<stop offset="1" stop-color="#1CB4FF" stop-opacity="0.71"/>
</linearGradient>
</defs>
</svg>
