<svg width="102" height="25" viewBox="0 0 102 25" fill="none" xmlns="http://www.w3.org/2000/svg">
<path d="M1.366 23.9331C1.146 23.9331 0.959 23.8561 0.805 23.7021C0.651 23.5481 0.574 23.3611 0.574 23.1411V1.65811C0.574 1.4161 0.651 1.2181 0.805 1.0641C0.959 0.910104 1.146 0.833104 1.366 0.833104H15.886C16.128 0.833104 16.326 0.910104 16.48 1.0641C16.634 1.2181 16.711 1.4161 16.711 1.65811V3.8361C16.711 4.0561 16.634 4.2431 16.48 4.39711C16.326 4.5511 16.128 4.6281 15.886 4.6281H5.029V10.4691H15.16C15.402 10.4691 15.6 10.5461 15.754 10.7001C15.908 10.8321 15.985 11.0191 15.985 11.2611V13.3071C15.985 13.5491 15.908 13.7471 15.754 13.9011C15.6 14.0331 15.402 14.0991 15.16 14.0991H5.029V20.1381H16.15C16.392 20.1381 16.59 20.2151 16.744 20.3691C16.898 20.5231 16.975 20.7211 16.975 20.9631V23.1411C16.975 23.3611 16.898 23.5481 16.744 23.7021C16.59 23.8561 16.392 23.9331 16.15 23.9331H1.366Z" fill="#FF6838"/>
<path d="M23.5443 23.9331C23.3243 23.9331 23.1373 23.8561 22.9833 23.7021C22.8293 23.5481 22.7523 23.3611 22.7523 23.1411V1.65811C22.7523 1.4161 22.8293 1.2181 22.9833 1.0641C23.1373 0.910104 23.3243 0.833104 23.5443 0.833104H37.8663C38.1083 0.833104 38.3063 0.910104 38.4603 1.0641C38.6143 1.2181 38.6913 1.4161 38.6913 1.65811V3.9681C38.6913 4.2101 38.6143 4.4081 38.4603 4.56211C38.3063 4.6941 38.1083 4.7601 37.8663 4.7601H27.2733V11.0301H37.2063C37.4483 11.0301 37.6463 11.1071 37.8003 11.2611C37.9543 11.4151 38.0313 11.6131 38.0313 11.8551V14.1651C38.0313 14.3851 37.9543 14.5721 37.8003 14.7261C37.6463 14.8801 37.4483 14.9571 37.2063 14.9571H27.2733V23.1411C27.2733 23.3611 27.1963 23.5481 27.0423 23.7021C26.8883 23.8561 26.6903 23.9331 26.4483 23.9331H23.5443ZM51.0934 24.2631C49.3334 24.2631 47.8484 23.9551 46.6384 23.3391C45.4504 22.7231 44.5374 21.8541 43.8994 20.7321C43.2834 19.6101 42.9314 18.3011 42.8434 16.8051C42.8214 16.4091 42.8104 15.9251 42.8104 15.3531C42.8104 14.7811 42.8214 14.2971 42.8434 13.9011C42.9314 12.3831 43.2944 11.0741 43.9324 9.97411C44.5924 8.8521 45.5164 7.9831 46.7044 7.3671C47.9144 6.7511 49.3774 6.4431 51.0934 6.4431C52.8094 6.4431 54.2614 6.7511 55.4494 7.3671C56.6594 7.9831 57.5834 8.8521 58.2214 9.97411C58.8814 11.0741 59.2554 12.3831 59.3434 13.9011C59.3654 14.2971 59.3764 14.7811 59.3764 15.3531C59.3764 15.9251 59.3654 16.4091 59.3434 16.8051C59.2554 18.3011 58.8924 19.6101 58.2544 20.7321C57.6384 21.8541 56.7254 22.7231 55.5154 23.3391C54.3274 23.9551 52.8534 24.2631 51.0934 24.2631ZM51.0934 20.9961C52.2594 20.9961 53.1614 20.6331 53.7994 19.9071C54.4374 19.1591 54.7894 18.0701 54.8554 16.6401C54.8774 16.3101 54.8884 15.8811 54.8884 15.3531C54.8884 14.8251 54.8774 14.3961 54.8554 14.0661C54.7894 12.6581 54.4374 11.5801 53.7994 10.8321C53.1614 10.0841 52.2594 9.7101 51.0934 9.7101C49.9274 9.7101 49.0254 10.0841 48.3874 10.8321C47.7494 11.5801 47.3974 12.6581 47.3314 14.0661C47.3094 14.3961 47.2984 14.8251 47.2984 15.3531C47.2984 15.8811 47.3094 16.3101 47.3314 16.6401C47.3974 18.0701 47.7494 19.1591 48.3874 19.9071C49.0254 20.6331 49.9274 20.9961 51.0934 20.9961ZM72.2727 24.2631C70.5127 24.2631 69.0277 23.9551 67.8177 23.3391C66.6297 22.7231 65.7167 21.8541 65.0787 20.7321C64.4627 19.6101 64.1107 18.3011 64.0227 16.8051C64.0007 16.4091 63.9897 15.9251 63.9897 15.3531C63.9897 14.7811 64.0007 14.2971 64.0227 13.9011C64.1107 12.3831 64.4737 11.0741 65.1117 9.97411C65.7717 8.8521 66.6957 7.9831 67.8837 7.3671C69.0937 6.7511 70.5567 6.4431 72.2727 6.4431C73.9887 6.4431 75.4407 6.7511 76.6287 7.3671C77.8387 7.9831 78.7627 8.8521 79.4007 9.97411C80.0607 11.0741 80.4347 12.3831 80.5227 13.9011C80.5447 14.2971 80.5557 14.7811 80.5557 15.3531C80.5557 15.9251 80.5447 16.4091 80.5227 16.8051C80.4347 18.3011 80.0717 19.6101 79.4337 20.7321C78.8177 21.8541 77.9047 22.7231 76.6947 23.3391C75.5067 23.9551 74.0327 24.2631 72.2727 24.2631ZM72.2727 20.9961C73.4387 20.9961 74.3407 20.6331 74.9787 19.9071C75.6167 19.1591 75.9687 18.0701 76.0347 16.6401C76.0567 16.3101 76.0677 15.8811 76.0677 15.3531C76.0677 14.8251 76.0567 14.3961 76.0347 14.0661C75.9687 12.6581 75.6167 11.5801 74.9787 10.8321C74.3407 10.0841 73.4387 9.7101 72.2727 9.7101C71.1067 9.7101 70.2047 10.0841 69.5667 10.8321C68.9287 11.5801 68.5767 12.6581 68.5107 14.0661C68.4887 14.3961 68.4777 14.8251 68.4777 15.3531C68.4777 15.8811 68.4887 16.3101 68.5107 16.6401C68.5767 18.0701 68.9287 19.1591 69.5667 19.9071C70.2047 20.6331 71.1067 20.9961 72.2727 20.9961ZM92.231 24.2631C91.087 24.2631 90.075 24.0761 89.195 23.7021C88.337 23.3061 87.622 22.7561 87.05 22.0521C86.478 21.3481 86.038 20.5231 85.73 19.5771C85.422 18.6091 85.246 17.5531 85.202 16.4091C85.18 16.0131 85.169 15.6611 85.169 15.3531C85.169 15.0231 85.18 14.6601 85.202 14.2641C85.246 13.1641 85.411 12.1411 85.697 11.1951C86.005 10.2491 86.445 9.4241 87.017 8.7201C87.611 7.9941 88.337 7.4331 89.195 7.0371C90.075 6.6411 91.087 6.4431 92.231 6.4431C93.419 6.4431 94.42 6.6521 95.234 7.0701C96.07 7.4661 96.763 7.9831 97.313 8.6211V1.2951C97.313 1.0751 97.379 0.888104 97.511 0.734105C97.665 0.580105 97.863 0.503104 98.105 0.503104H100.91C101.13 0.503104 101.317 0.580105 101.471 0.734105C101.625 0.888104 101.702 1.0751 101.702 1.2951V23.1411C101.702 23.3611 101.625 23.5481 101.471 23.7021C101.317 23.8561 101.13 23.9331 100.91 23.9331H98.303C98.061 23.9331 97.863 23.8561 97.709 23.7021C97.577 23.5481 97.511 23.3611 97.511 23.1411V21.9201C96.961 22.6021 96.257 23.1631 95.399 23.6031C94.563 24.0431 93.507 24.2631 92.231 24.2631ZM93.452 20.7321C94.376 20.7321 95.113 20.5231 95.663 20.1051C96.213 19.6871 96.62 19.1591 96.884 18.5211C97.148 17.8611 97.291 17.1901 97.313 16.5081C97.335 16.1121 97.346 15.6941 97.346 15.2541C97.346 14.7921 97.335 14.3631 97.313 13.9671C97.291 13.3071 97.137 12.6801 96.851 12.0861C96.565 11.4701 96.147 10.9641 95.597 10.5681C95.047 10.1721 94.332 9.97411 93.452 9.97411C92.528 9.97411 91.791 10.1831 91.241 10.6011C90.713 10.9971 90.328 11.5251 90.086 12.1851C89.844 12.8451 89.701 13.5711 89.657 14.3631C89.635 15.0231 89.635 15.6831 89.657 16.3431C89.701 17.1351 89.844 17.8611 90.086 18.5211C90.328 19.1811 90.713 19.7201 91.241 20.1381C91.791 20.5341 92.528 20.7321 93.452 20.7321Z" fill="#363853"/>
</svg>
