<svg width="21" height="20" viewBox="0 0 21 20" fill="none" xmlns="http://www.w3.org/2000/svg">
<path d="M1 0.821777L3.08 1.17777L4.04301 12.523C4.12001 13.4496 4.90301 14.1606 5.84301 14.1576H16.752C17.649 14.1596 18.41 13.507 18.537 12.6289L19.486 6.14386C19.592 5.41902 19.083 4.74659 18.351 4.64177C18.287 4.63287 3.414 4.62793 3.414 4.62793" stroke="#363853" stroke-width="1.5" stroke-linecap="round" stroke-linejoin="round"/>
<path d="M12.375 8.28278H15.1479" stroke="#363853" stroke-width="1.5" stroke-linecap="round" stroke-linejoin="round"/>
<path fill-rule="evenodd" clip-rule="evenodd" d="M5.4043 17.5857C5.70527 17.5857 5.94824 17.827 5.94824 18.1237C5.94824 18.4213 5.70527 18.6626 5.4043 18.6626C5.10333 18.6626 4.86035 18.4213 4.86035 18.1237C4.86035 17.827 5.10333 17.5857 5.4043 17.5857Z" fill="#363853" stroke="#363853" stroke-width="1.5" stroke-linecap="round" stroke-linejoin="round"/>
<path fill-rule="evenodd" clip-rule="evenodd" d="M16.6846 17.5857C16.9856 17.5857 17.2296 17.827 17.2296 18.1237C17.2296 18.4213 16.9856 18.6626 16.6846 18.6626C16.3836 18.6626 16.1406 18.4213 16.1406 18.1237C16.1406 17.827 16.3836 17.5857 16.6846 17.5857Z" fill="#363853" stroke="#363853" stroke-width="1.5" stroke-linecap="round" stroke-linejoin="round"/>
</svg>
